<?xml version="1.0" encoding="UTF-8"?>
<svg version="1.1" xmlns="http://www.w3.org/2000/svg" width="512" height="512">
<path d="M0 0 C1.46592078 -0.00445538 2.93183915 -0.00977041 4.39775401 -0.01586872 C8.41775013 -0.03002318 12.43766884 -0.0317125 16.45768631 -0.03127182 C20.79663617 -0.03292228 25.13555435 -0.04599306 29.4744873 -0.0574646 C38.9580467 -0.08029577 48.44158369 -0.08823314 57.92516685 -0.09329104 C63.84928263 -0.09655016 69.77339193 -0.10307393 75.69750404 -0.11029243 C92.10730498 -0.12985567 108.51709991 -0.14626158 124.92691326 -0.14916897 C126.50147078 -0.14945032 126.50147078 -0.14945032 128.10783755 -0.14973736 C130.2357415 -0.15010361 132.36364545 -0.15046731 134.4915494 -0.15082847 C135.54780932 -0.15101128 136.60406924 -0.1511941 137.69233704 -0.15138245 C138.74988966 -0.151563 139.80744228 -0.15174354 140.89704195 -0.15192956 C158.03130821 -0.15547085 175.16544877 -0.18249164 192.29967143 -0.21988034 C209.90103087 -0.2579803 227.50232796 -0.27732657 245.10372955 -0.27762848 C254.98230884 -0.27821266 264.86073815 -0.28667919 274.73927879 -0.31562614 C283.15119628 -0.34016257 291.56290908 -0.34740762 299.9748527 -0.33237862 C304.26402717 -0.32521905 308.55279763 -0.32602579 312.84192657 -0.34878922 C316.77466376 -0.3694606 320.70668843 -0.36670369 324.63941858 -0.34591437 C326.05597338 -0.34243498 327.47258045 -0.34726333 328.88906678 -0.36161881 C340.86886771 -0.47512585 351.19940425 1.8847167 360.04414368 10.39915466 C368.01083362 19.2922039 370.17375523 29.45755725 370.15620422 41.13987732 C370.16639587 42.17521606 370.17658752 43.21055481 370.18708801 44.27726746 C370.2170336 47.66430706 370.2264558 51.051063 370.23554993 54.43821716 C370.25241026 56.80048041 370.27056231 59.16273476 370.28994751 61.52497864 C370.33730631 67.71608194 370.36720704 73.90714916 370.39338684 80.09837341 C370.42326367 86.42657088 370.4697695 92.75464419 370.5148468 99.08274841 C370.60071929 111.47981869 370.66813591 123.87691463 370.72383118 136.27415466 C371.16695145 135.49861237 371.61007172 134.72307007 372.06661987 133.92402649 C373.75230064 130.97381468 375.43801446 128.02362176 377.12374878 125.07344055 C377.8455429 123.81022353 378.56732482 122.54699954 379.28909302 121.2837677 C381.40955186 117.57257168 383.53027988 113.86152968 385.65132904 110.15067101 C386.37171329 108.89024198 387.09201338 107.62976484 387.81223297 106.36924171 C388.87148683 104.51539445 389.93105009 102.66172433 390.99067688 100.80809021 C391.60747818 99.72883774 392.22427948 98.64958527 392.85977173 97.53762817 C395.26238976 93.35205824 397.69026559 89.18154682 400.12715149 85.01585388 C401.12256919 83.30659687 402.11028603 81.59280291 403.08613586 79.87229919 C410.44680095 66.89861297 410.44680095 66.89861297 418.05195618 63.91087341 C431.07240125 60.80804805 440.32097966 66.24539404 451.34883118 72.52415466 C452.1557843 72.96372498 452.96273743 73.40329529 453.79414368 73.85618591 C460.39521673 77.61751163 465.50408067 82.13678635 469.13008118 88.89524841 C469.84526265 91.76067946 470.13593726 94.38122159 470.22383118 97.33665466 C470.27539368 98.35888123 470.32695618 99.38110779 470.38008118 100.43431091 C468.72252818 110.13296922 462.24905843 119.02861658 457.28633118 127.39915466 C456.04614881 129.50817753 454.8065868 131.61756528 453.56758118 133.72727966 C452.61625305 135.34473083 452.61625305 135.34473083 451.64570618 136.99485779 C448.4989901 142.36410199 445.39224498 147.75623658 442.28633118 153.14915466 C441.35349304 154.76781433 441.35349304 154.76781433 440.40180969 156.41917419 C439.13933387 158.60998417 437.87704562 160.80090226 436.61494446 162.9919281 C433.48702969 168.42075409 430.3552467 173.84734747 427.22383118 179.27415466 C425.97381239 181.44081049 424.72381239 183.60747716 423.47383118 185.77415466 C400.97383118 224.77415465 400.97383118 224.77415465 399.09614563 228.02879333 C397.85507864 230.17998691 396.61403024 232.33119121 395.3730011 234.48240662 C392.45884773 239.53378465 389.544513 244.58505777 386.62950134 249.63594055 C385.5970964 251.42482384 384.56475161 253.21374184 383.53242493 255.00267029 C382.23697169 257.24753103 380.94140547 259.49232657 379.64570618 261.73704529 C379.05918274 262.75347107 378.4726593 263.76989685 377.86836243 264.81712341 C377.35636292 265.70424011 376.8443634 266.59135681 376.31684875 267.50535583 C375.79115295 268.41905945 375.26545715 269.33276306 374.72383118 270.27415466 C373.69947212 271.84926315 373.69947212 271.84926315 372.65441895 273.45619202 C370.48050029 277.28315151 370.17067337 280.78732086 370.2414093 285.13035583 C370.23554054 286.25877396 370.23554054 286.25877396 370.22955322 287.4099884 C370.22360695 289.03263708 370.22669609 290.65533946 370.23797607 292.27795982 C370.2553509 294.85716184 370.24766799 297.43525384 370.23371887 300.01446533 C370.20417823 306.42197174 370.21720039 312.82926177 370.22889709 319.23680115 C370.23714962 324.65332567 370.22895626 330.06936291 370.19976807 335.48581886 C370.19274769 338.00731619 370.20926027 340.52792018 370.22688293 343.04934692 C370.22538271 355.12626058 368.81559676 365.74284141 360.70820618 375.30540466 C352.23256907 383.71430447 343.13267978 386.60094766 331.42483491 386.68004698 C330.05678164 386.67425301 328.68872957 386.66817204 327.32067871 386.66183472 C325.85318082 386.66601111 324.38568616 386.67149031 322.91819745 386.67815453 C318.89848401 386.69258806 314.87897597 386.68837098 310.85925138 386.68098772 C306.51897158 386.6762531 302.17873603 386.68876857 297.83847046 386.69900513 C289.34011433 386.71619332 280.84183214 386.71703301 272.34346315 386.71179222 C265.43441532 386.70774895 258.52538933 386.70919596 251.61634254 386.71454048 C250.63257381 386.7152889 249.64880508 386.71603733 248.63522518 386.71680843 C246.63660849 386.71833993 244.63799181 386.71987827 242.63937513 386.72142339 C223.89995854 386.73514878 205.1605837 386.72971071 186.42116807 386.71823818 C169.28630469 386.70830812 152.15154933 386.72124249 135.01670261 386.74517237 C117.41418183 386.76956977 99.81171133 386.77916952 82.20917398 386.77251965 C72.33011345 386.76902855 62.45113597 386.77125217 52.57208824 386.78877068 C44.16127576 386.80350074 35.7506048 386.80411768 27.33979508 386.78669976 C23.05079875 386.77819359 18.76205513 386.77603074 14.47307205 386.79135132 C10.54173535 386.80522014 6.61086734 386.80040742 2.6795576 386.78111208 C1.26238429 386.77735842 -0.15482677 386.78025573 -1.57196639 386.79072373 C-14.41862926 386.87882094 -23.74701096 384.69817393 -33.11210632 375.64524841 C-39.03259881 369.15835502 -42.52086877 362.30774001 -42.53343773 353.37883377 C-42.53988662 352.21656714 -42.54633551 351.0543005 -42.55297983 349.85681367 C-42.54988262 348.58931708 -42.54678542 347.32182049 -42.54359436 346.01591492 C-42.54733257 344.64842724 -42.55193478 343.2809417 -42.55732501 341.91345954 C-42.56954943 338.16097469 -42.5692952 334.40857903 -42.56693625 330.65607882 C-42.56652794 326.60686147 -42.57756863 322.55767266 -42.58705139 318.50846863 C-42.60365957 310.57701804 -42.60916087 302.64559719 -42.61027615 294.71413067 C-42.61122676 288.26603287 -42.61533771 281.81794486 -42.6216774 275.36985016 C-42.63928972 257.08389127 -42.64851634 238.79795586 -42.64701645 220.51198843 C-42.64693654 219.52632555 -42.64685663 218.54066268 -42.64677429 217.52513123 C-42.64665165 216.04482924 -42.64665165 216.04482924 -42.64652653 214.53462216 C-42.64571375 198.54353232 -42.66484942 182.5525367 -42.69305103 166.56147411 C-42.72178705 150.13762893 -42.73559091 133.71382968 -42.73386347 117.28995872 C-42.73319979 108.07096869 -42.73868233 98.85207742 -42.76021957 89.63311005 C-42.77844087 81.78326905 -42.78277097 73.93357157 -42.76920073 66.08371857 C-42.76267569 62.08041076 -42.76253685 58.07737822 -42.77990723 54.07409668 C-42.79566401 50.40487272 -42.79274823 46.73614168 -42.77533896 43.06692955 C-42.77082989 41.12009467 -42.78590602 39.17324435 -42.80181825 37.22646928 C-42.71047424 25.58006151 -39.69785741 17.8843852 -31.64335632 9.47337341 C-22.03775721 0.54935971 -12.66081208 -0.02421633 0 0 Z M15.72383118 40.27415466 C15.72383118 41.26415466 15.72383118 42.25415466 15.72383118 43.27415466 C16.71383118 43.27415466 17.70383118 43.27415466 18.72383118 43.27415466 C18.72383118 42.28415466 18.72383118 41.29415466 18.72383118 40.27415466 C17.73383118 40.27415466 16.74383118 40.27415466 15.72383118 40.27415466 Z M55.72383118 40.27415466 C55.72383118 41.26415466 55.72383118 42.25415466 55.72383118 43.27415466 C56.71383118 43.27415466 57.70383118 43.27415466 58.72383118 43.27415466 C58.72383118 42.28415466 58.72383118 41.29415466 58.72383118 40.27415466 C57.73383118 40.27415466 56.74383118 40.27415466 55.72383118 40.27415466 Z M95.72383118 40.27415466 C95.72383118 41.26415466 95.72383118 42.25415466 95.72383118 43.27415466 C96.71383118 43.27415466 97.70383118 43.27415466 98.72383118 43.27415466 C98.72383118 42.28415466 98.72383118 41.29415466 98.72383118 40.27415466 C97.73383118 40.27415466 96.74383118 40.27415466 95.72383118 40.27415466 Z M419.11836243 86.71946716 C417.58042952 89.53685686 416.15327063 92.40045523 414.72383118 95.27415466 C415.42467834 95.68254578 416.12552551 96.09093689 416.84761047 96.51170349 C420.03570946 98.36969118 423.22352304 100.22816801 426.41133118 102.08665466 C428.06552063 103.05055115 428.06552063 103.05055115 429.75312805 104.03392029 C430.81982727 104.65589294 431.88652649 105.2778656 432.98554993 105.91868591 C433.96483459 106.4894989 434.94411926 107.06031189 435.95307922 107.64842224 C437.7975601 108.73066721 439.6129722 109.86407101 441.39497375 111.04637146 C442.1634967 111.45153992 442.93201965 111.85670837 443.72383118 112.27415466 C447.57402361 110.99075719 448.01712348 109.63513391 449.97383118 106.14915466 C450.78594055 104.75309998 450.78594055 104.75309998 451.61445618 103.32884216 C453.05364866 99.36599526 453.03312395 97.28901398 451.72383118 93.27415466 C449.59912336 91.2302456 447.20034428 89.94450549 444.59883118 88.58665466 C443.62043274 88.04041443 443.62043274 88.04041443 442.62226868 87.48313904 C441.31412361 86.75509402 439.99986122 86.03792927 438.67964172 85.33201599 C436.73486212 84.28012109 434.82975676 83.17453139 432.92304993 82.05540466 C425.62211734 77.99041656 423.10075147 80.20283054 419.11836243 86.71946716 Z M-26.27616882 84.27415466 C-26.31741882 127.99915466 -26.35866882 171.72415466 -26.40116882 216.77415466 C-26.41937683 230.58839294 -26.43758484 244.40263123 -26.4563446 258.63548279 C-26.46303283 271.00163219 -26.46303283 271.00163219 -26.46705627 283.36778259 C-26.46892209 288.88244835 -26.47626162 294.39707363 -26.48731995 299.91172791 C-26.50005632 306.27261614 -26.50583936 312.63346553 -26.50305872 318.99436662 C-26.50185458 322.24780172 -26.50487321 325.50113249 -26.51459908 328.7545557 C-26.52453825 332.24101795 -26.52215177 335.72726268 -26.51667786 339.21372986 C-26.52250319 340.22512779 -26.52832851 341.23652573 -26.53433037 342.27857208 C-26.49968881 350.48105342 -25.77294382 357.76481586 -20.27616882 364.27415466 C-13.67382625 370.27690332 -6.52972797 369.977879 1.97080994 369.89561462 C3.42125104 369.89994732 4.87168696 369.90646666 6.32210958 369.91497469 C10.2946254 369.93193174 14.26650887 369.91780951 18.23899126 369.89845991 C22.52805513 369.8830122 26.81704255 369.89644003 31.10610962 369.90620422 C39.5025914 369.92072215 47.89883117 369.90850596 56.29529001 369.88709098 C66.07297894 369.86306915 75.85061255 369.86479604 85.62832443 369.86739689 C103.07264516 369.87108613 120.5168519 369.85026848 137.96113586 369.81614685 C154.8898761 369.78304593 171.81849673 369.76889039 188.74726868 369.77513123 C207.18289682 369.78189414 225.61847488 369.77943858 244.05409563 369.75977182 C245.02877819 369.75873234 246.00346076 369.75769285 247.00767916 369.75662187 C248.96528282 369.75453097 250.92288646 369.75242 252.88049007 369.7502887 C259.69706561 369.74339179 266.51362572 369.74272399 273.33020401 369.74417114 C281.63502105 369.74561032 289.93974054 369.73592932 298.24452521 369.71222478 C302.48222178 369.70035941 306.71978233 369.69324325 310.95749474 369.69906235 C314.83608812 369.704231 318.71439404 369.69555736 322.59293823 369.67578775 C323.99655714 369.67104492 325.40020402 369.6713519 326.80381878 369.67719811 C328.71127513 369.68437567 330.6187755 369.67131286 332.52619362 369.65726471 C334.11565329 369.65490791 334.11565329 369.65490791 335.73722327 369.65250349 C340.82692454 369.00773104 344.72695781 366.84178661 347.97383118 362.89915466 C348.69312805 362.0522406 348.69312805 362.0522406 349.42695618 361.18821716 C352.06312829 357.29748122 352.97450591 353.78241536 352.95088196 349.11668396 C352.9507309 348.11602402 352.95057983 347.11536407 352.95042419 346.0843811 C352.94010162 345.01649857 352.92977905 343.94861603 352.91914368 342.84837341 C352.91631378 341.7456459 352.91348389 340.6429184 352.91056824 339.5067749 C352.89939099 335.99162353 352.87429055 332.47672878 352.84883118 328.96165466 C352.83879822 326.57559064 352.82967292 324.18952261 352.82148743 321.80345154 C352.79945967 315.96026531 352.76600631 310.11722833 352.72383118 304.27415466 C340.31947655 310.08108346 340.31947655 310.08108346 328.02851868 316.12181091 C327.27312805 316.49886169 326.51773743 316.87591248 325.73945618 317.26438904 C324.26701504 318.00195307 322.80115006 318.75274611 321.34101868 319.51438904 C316.1430242 322.07277694 311.52536762 323.21986183 305.72383118 322.27415466 C302.4502237 320.99410459 301.76223933 320.33176689 299.72383118 317.27415466 C298.84885189 312.33416743 298.45753283 307.34694347 298.01338196 302.35179138 C297.80509558 300.13791439 297.57417336 297.92612435 297.32881165 295.71604919 C294.17884212 267.21302253 294.17884212 267.21302253 301.40742493 257.1872406 C303.63670608 253.94750634 305.51596695 250.50517333 307.46577454 247.09251404 C309.25831876 243.96396303 311.08232645 240.85577131 312.91523743 237.75071716 C316.70282129 231.32241855 320.43811383 224.86489655 324.16133118 218.39915466 C324.77677795 217.33148865 325.39222473 216.26382263 326.02632141 215.1638031 C328.60161299 210.69581121 331.17541545 206.22696295 333.74824524 201.7575531 C335.10498375 199.40069176 336.46216338 197.04408542 337.81977844 194.68772888 C339.08929236 192.48408597 340.35806385 190.28001511 341.62593079 188.07542419 C342.20608948 187.06850525 342.78624817 186.0615863 343.38398743 185.02415466 C343.88551331 184.15274841 344.38703918 183.28134216 344.90376282 182.38352966 C347.47416571 177.99229543 350.10596731 173.63726111 352.72383118 169.27415466 C352.72383118 141.22415466 352.72383118 113.17415466 352.72383118 84.27415466 C227.65383118 84.27415466 102.58383118 84.27415466 -26.27616882 84.27415466 Z M313.72383118 287.27415466 C313.69657777 289.00323206 313.67732131 290.73243643 313.66133118 292.46165466 C313.64972961 293.42458435 313.63812805 294.38751404 313.62617493 295.37962341 C313.71896495 298.1299198 314.10271432 300.59895057 314.72383118 303.27415466 C320.20315906 301.72870321 324.83812299 299.11872254 329.72383118 296.27415466 C325.70189262 292.77117592 319.32949973 287.27415466 313.72383118 287.27415466 Z " fill="#5407A5" transform="translate(42.27616882324219,62.72584533691406)"/>
<path d="M0 0 C1.83109006 -0.00967334 1.83109006 -0.00967334 3.69917184 -0.0195421 C5.05060639 -0.01659993 6.40204053 -0.01346451 7.75347424 -0.01015663 C9.19164573 -0.01389337 10.62981519 -0.01849499 12.06798142 -0.02388728 C16.02041231 -0.03612982 19.97275863 -0.03585534 23.92520416 -0.03349853 C28.18776276 -0.03309068 32.45029414 -0.04412647 36.71284008 -0.05361366 C45.06419862 -0.07023153 53.41552892 -0.07572356 61.7669026 -0.07683842 C68.55495364 -0.07778852 75.34299535 -0.08189694 82.13104343 -0.08823967 C101.37377953 -0.10585425 120.61649331 -0.11507821 139.85923753 -0.11357872 C141.41553651 -0.11345885 141.41553651 -0.11345885 143.00327587 -0.11333656 C144.04207444 -0.1132548 145.080873 -0.11317304 146.15115031 -0.1130888 C162.98753451 -0.11227585 179.82382926 -0.13141533 196.66018758 -0.1596133 C213.94506057 -0.18833416 231.22988992 -0.20215403 248.51478738 -0.20042574 C258.21998127 -0.19976156 267.92508138 -0.20526607 277.63025379 -0.22678185 C285.89336321 -0.24498315 294.15633634 -0.24934963 302.41945712 -0.235763 C306.63515808 -0.22922801 310.85059752 -0.22913516 315.06627369 -0.2464695 C318.92725209 -0.26218204 322.78776121 -0.25935552 326.64872804 -0.24190123 C328.04373396 -0.2388273 329.43877475 -0.24247865 330.83373956 -0.25362138 C339.61617149 -0.31911477 346.22938529 0.00542619 353.01523876 6.10883141 C353.47027782 6.69406578 353.92531689 7.27930016 354.39414501 7.88226891 C354.86723095 8.47265953 355.34031689 9.06305016 355.82773876 9.67133141 C363.87694804 20.9792171 357.95664501 37.37713746 357.95664501 51.25726891 C232.88664501 51.25726891 107.81664501 51.25726891 -21.04335499 51.25726891 C-21.04335499 14.25726891 -21.04335499 14.25726891 -16.04335499 6.25726891 C-11.14463938 1.60348908 -6.70595743 0.00896413 0 0 Z M20.95664501 24.25726891 C20.95664501 25.24726891 20.95664501 26.23726891 20.95664501 27.25726891 C21.94664501 27.25726891 22.93664501 27.25726891 23.95664501 27.25726891 C23.95664501 26.26726891 23.95664501 25.27726891 23.95664501 24.25726891 C22.96664501 24.25726891 21.97664501 24.25726891 20.95664501 24.25726891 Z M60.95664501 24.25726891 C60.95664501 25.24726891 60.95664501 26.23726891 60.95664501 27.25726891 C61.94664501 27.25726891 62.93664501 27.25726891 63.95664501 27.25726891 C63.95664501 26.26726891 63.95664501 25.27726891 63.95664501 24.25726891 C62.96664501 24.25726891 61.97664501 24.25726891 60.95664501 24.25726891 Z M100.95664501 24.25726891 C100.95664501 25.24726891 100.95664501 26.23726891 100.95664501 27.25726891 C101.94664501 27.25726891 102.93664501 27.25726891 103.95664501 27.25726891 C103.95664501 26.26726891 103.95664501 25.27726891 103.95664501 24.25726891 C102.96664501 24.25726891 101.97664501 24.25726891 100.95664501 24.25726891 Z " fill="#8C84FE" transform="translate(37.043354988098145,78.74273109436035)"/>
<path d="M0 0 C1.12817689 -0.01169993 1.12817689 -0.01169993 2.27914524 -0.02363622 C4.79524013 -0.04355407 7.30982208 -0.02779372 9.82592773 -0.01205444 C11.63134646 -0.0188307 13.43675827 -0.02773388 15.24215698 -0.03860474 C20.14303907 -0.06140375 25.04339503 -0.05255924 29.94428635 -0.03670931 C35.07224703 -0.02405347 40.20016256 -0.03578955 45.328125 -0.04364014 C53.93977957 -0.05273761 62.55121977 -0.04074618 71.1628418 -0.01693726 C81.12014604 0.01027416 91.0769384 0.00146007 101.03423023 -0.02606928 C109.58215372 -0.04875652 118.12992307 -0.0519623 126.67786694 -0.03887594 C131.78371255 -0.03107933 136.88931753 -0.03004566 141.99514771 -0.04655838 C146.79537043 -0.06099823 151.594933 -0.05099028 156.39508438 -0.0220871 C158.15711495 -0.01547369 159.91920105 -0.01737833 161.68120956 -0.02840042 C164.08623817 -0.04205823 166.48914946 -0.02494031 168.89404297 0 C169.59200265 -0.01115361 170.28996233 -0.02230722 171.0090723 -0.03379881 C174.79409834 0.04238318 176.39160656 0.59160274 179.41127014 2.95194435 C181.44702148 5.63491821 181.44702148 5.63491821 181.57202148 9.19741821 C180.21683212 13.33827459 179.10309326 14.34109019 175.44702148 16.63491821 C172.81470815 17.02213931 170.60294817 17.18097051 167.97669983 17.14958191 C167.23345457 17.15652744 166.49020931 17.16347297 165.72444147 17.17062896 C163.23851347 17.18889858 160.75353985 17.17863529 158.26757812 17.16836548 C156.48348781 17.17542401 154.69940349 17.18416875 152.91532898 17.19447327 C148.07230341 17.21698474 143.22960436 17.21402338 138.38654637 17.2051518 C134.34320939 17.20004341 130.29993384 17.20733329 126.25660318 17.21462387 C116.71788921 17.23162856 107.1793352 17.22805138 97.640625 17.21133423 C87.80036709 17.19441158 77.96055273 17.21024816 68.12034327 17.24255711 C59.67092832 17.26924845 51.22165149 17.27653025 42.77219862 17.26804203 C37.72611011 17.26311157 32.68028851 17.2653349 27.63423347 17.28582954 C22.88901924 17.30417948 18.14444327 17.2982364 13.39926338 17.27363014 C11.65860818 17.26862008 9.91790441 17.27211712 8.17728806 17.28477859 C5.79890073 17.30070952 3.42261512 17.28576087 1.04432678 17.2631073 C0.35706184 17.27494303 -0.3302031 17.28677876 -1.03829426 17.29897314 C-6.53709775 17.19271613 -8.86228161 15.44072912 -12.55297852 11.63491821 C-13.24047852 8.63491821 -13.24047852 8.63491821 -12.55297852 5.63491821 C-8.81312024 0.85321639 -5.84864556 -0.09346314 0 0 Z " fill="#550AA7" transform="translate(188.552978515625,96.36508178710938)"/>
<path d="M0 0 C3.60387959 1.98718594 6.90683897 4.35589945 10.25 6.75 C12.21607431 8.12510227 14.18222143 9.50010043 16.1484375 10.875 C17.13038086 11.56851563 18.11232422 12.26203125 19.12402344 12.9765625 C23.34411087 15.94566985 27.60957701 18.84661517 31.875 21.75 C33.42222921 22.8093787 34.96910978 23.86926678 36.515625 24.9296875 C39.48050781 26.9614665 42.44952041 28.98698193 45.421875 31.0078125 C65.26100849 44.52201698 65.26100849 44.52201698 67 48 C67.375 51.3125 67.375 51.3125 67 55 C63.31054201 59.20752231 58.91441292 62.63106267 54.5625 66.125 C53.85947754 66.6926709 53.15645508 67.2603418 52.43212891 67.84521484 C46.23478909 72.83794238 39.98534571 77.76315601 33.71337891 82.66162109 C30.82677122 84.91644916 27.94413986 87.17632825 25.0625 89.4375 C24.49394287 89.88303223 23.92538574 90.32856445 23.33959961 90.78759766 C20.19638563 93.25572044 17.07038406 95.74334355 13.9609375 98.25390625 C13.28925537 98.79539307 12.61757324 99.33687988 11.92553711 99.89477539 C10.63505024 100.93676865 9.34667081 101.98137937 8.06079102 103.02905273 C-0.57457778 110 -0.57457778 110 -5.5625 110 C-9.7052961 108.79482295 -10.91786087 107.74785043 -13 104 C-13.61222676 100.32663946 -13.49231374 98.71373714 -11.3671875 95.6328125 C-8.70268509 92.66932302 -5.78577281 90.27367536 -2.625 87.875 C-1.36706708 86.90380179 -0.10925802 85.93244312 1.1484375 84.9609375 C1.7887793 84.46948242 2.42912109 83.97802734 3.08886719 83.47167969 C6.07716337 81.17052366 9.03775965 78.83453349 12 76.5 C13.1612997 75.58703777 14.32275865 74.67427806 15.484375 73.76171875 C16.06123047 73.30845215 16.63808594 72.85518555 17.23242188 72.38818359 C19.03455356 70.97286305 20.8375001 69.55858615 22.640625 68.14453125 C29.45569316 62.79821198 36.24701343 57.42473049 43 52 C36.36090126 46.6448141 29.44153919 41.86352428 22.3125 37.1875 C13.40535867 31.29786338 4.6100535 25.31644092 -4 19 C-4.85207031 18.38382813 -5.70414062 17.76765625 -6.58203125 17.1328125 C-11.86861188 13.26277624 -11.86861188 13.26277624 -13 11 C-13.25303321 7.12015747 -13.30454139 4.22635795 -11 1 C-7.54202479 -1.68953627 -3.987219 -1.25133506 0 0 Z " fill="#5306A5" transform="translate(264,235)"/>
<path d="M0 0 C2.91535318 2.35109128 3.0175846 4.09751462 3.6875 7.8125 C3.50309324 11.38867403 2.55698749 12.96621042 -0.0625 15.375 C-5.13907825 19.31849312 -10.56285959 22.81680917 -15.94140625 26.33203125 C-19.98134058 28.97506076 -23.96484498 31.69467391 -27.9375 34.4375 C-28.58984619 34.88754395 -29.24219238 35.33758789 -29.91430664 35.80126953 C-31.24901694 36.72226708 -32.58356944 37.64349334 -33.91796875 38.56494141 C-36.11965729 40.08247485 -38.32500504 41.59456809 -40.53125 43.10546875 C-41.26867432 43.61086182 -42.00609863 44.11625488 -42.76586914 44.63696289 C-44.18903471 45.6121393 -45.6126829 46.58661185 -47.03686523 47.56030273 C-50.16162181 49.6012814 -50.16162181 49.6012814 -53 52 C-51.57821485 53.1171169 -50.15642561 54.23422859 -48.73461914 55.35131836 C-47.47592532 56.34032749 -46.21730101 57.32942509 -44.95874023 58.31860352 C-41.80089196 60.80035691 -38.64223446 63.28105126 -35.48046875 65.7578125 C-27.51574801 72.00006297 -19.60012425 78.30125857 -11.70703125 84.63378906 C-10.12065566 85.90343406 -8.52927829 87.16682258 -6.9375 88.4296875 C-6.050625 89.13351562 -5.16375 89.83734375 -4.25 90.5625 C-3.49203125 91.16191406 -2.7340625 91.76132812 -1.953125 92.37890625 C2.94725957 96.44622544 2.94725957 96.44622544 3.375 100.9375 C3.25629695 103.52047836 2.98440755 105.0357709 1.9375 107.4375 C-1.04339218 109.84144531 -3.19830556 110 -7 110 C-13.06478659 107.50273493 -17.74209523 102.98718271 -22.69921875 98.7734375 C-26.02834287 95.95457352 -29.43785151 93.24798198 -32.875 90.5625 C-33.46039551 90.10472168 -34.04579102 89.64694336 -34.64892578 89.17529297 C-35.83959218 88.24523755 -37.03067376 87.31571342 -38.22216797 86.38671875 C-46.16002784 80.19514445 -54.06796232 73.96568801 -61.9375 67.6875 C-62.54005615 67.20804932 -63.1426123 66.72859863 -63.76342773 66.23461914 C-66.83148527 63.78144705 -69.87187005 61.29721816 -72.87890625 58.76953125 C-73.45326416 58.28718018 -74.02762207 57.8048291 -74.61938477 57.30786133 C-76.70232621 55.33468408 -76.99333791 54.04996569 -77.375 51.1875 C-76.87029662 46.89752124 -75.1665621 45.86560785 -72 43 C-70.11866455 41.53673909 -68.19742827 40.12407375 -66.25 38.75 C-65.37674072 38.13306274 -65.37674072 38.13306274 -64.48583984 37.50366211 C-56.09855193 31.6144691 -47.59227809 25.89452381 -39.109375 20.14453125 C-34.02061885 16.69504778 -28.94129249 13.23238623 -23.875 9.75 C-23.26736816 9.33306885 -22.65973633 8.9161377 -22.03369141 8.48657227 C-19.07721613 6.45227348 -16.15538625 4.383141 -13.2578125 2.265625 C-8.4079495 -1.1071814 -5.71561811 -1.32683992 0 0 Z " fill="#5306A5" transform="translate(157,235)"/>
<path d="M0 0 C2.5 1.5 2.5 1.5 4 4 C4.29479887 9.47256366 3.7414252 13.96235045 2.31030273 19.28735352 C2.03876924 20.31393979 2.03876924 20.31393979 1.76175022 21.36126518 C1.1617977 23.61978483 0.54778946 25.87422226 -0.06640625 28.12890625 C-0.49742925 29.73993165 -0.92758525 31.35118923 -1.35693359 32.96266174 C-2.50855869 37.27459011 -3.67258018 41.58307578 -4.8396492 45.89084625 C-6.04665305 50.35192778 -7.24423467 54.81553861 -8.44311523 59.27880859 C-10.1333457 65.56682137 -11.82823493 71.85355011 -13.52835178 78.13889694 C-15.88000637 86.83326366 -18.2116738 95.53258166 -20.51991272 104.23857117 C-21.87773298 109.35949834 -23.24758292 114.4771785 -24.61911011 119.5944519 C-25.24499895 121.93678214 -25.86704779 124.28014203 -26.48513794 126.62454224 C-27.33395885 129.83887737 -28.19806397 133.0487053 -29.06640625 136.2578125 C-29.30721924 137.18429092 -29.54803223 138.11076935 -29.79614258 139.06532288 C-31.09893519 143.81089248 -32.2974752 147.53542892 -36 151 C-40.91001763 151.77936788 -42.82967506 151.71652547 -47.0625 149.125 C-50.34377502 143.83262094 -48.57200315 138.50215689 -47.22967529 132.63031006 C-46.21542683 128.67520809 -45.1445482 124.7394329 -44.0546875 120.8046875 C-43.64762918 119.31158549 -43.24132159 117.81827863 -42.83570862 116.32478333 C-41.74918057 112.33144547 -40.65320388 108.34076032 -39.55524826 104.35055161 C-38.415736 100.20365175 -37.2842385 96.05456845 -36.15258789 91.90551758 C-35.69496513 90.22785852 -35.23733877 88.55020044 -34.77970886 86.87254333 C-34.55270987 86.04029173 -34.32571087 85.20804012 -34.09183311 84.35056877 C-33.40089263 81.8189017 -32.7088229 79.28754545 -32.01655579 76.75624084 C-29.29552567 66.79986374 -26.61105824 56.83468945 -23.97572327 46.85528564 C-23.44912293 44.86125138 -22.92154368 42.86747861 -22.39367676 40.8737793 C-20.43772533 33.48283569 -20.43772533 33.48283569 -18.49627686 26.08807373 C-17.62797371 22.76912937 -16.75047097 19.45274298 -15.87109375 16.13671875 C-15.62194717 15.17248489 -15.3728006 14.20825104 -15.11610413 13.21479797 C-13.92159331 8.74202056 -12.82129235 4.7647409 -10 1 C-6.79158965 -0.60420518 -3.4806013 -0.47462745 0 0 Z " fill="#5306A5" transform="translate(228,214)"/>
<path d="M0 0 C4.49761395 1.22662199 6.8385846 2.61866005 10 6 C9.65445068 6.59087402 9.30890137 7.18174805 8.95288086 7.79052734 C0.21500517 22.7373841 -8.46694474 37.71523739 -17.10888672 52.71777344 C-20.86028024 59.22871257 -24.61690994 65.73663194 -28.37255859 72.24511719 C-31.51182246 77.68585336 -34.64981497 83.12731477 -37.78515625 88.5703125 C-44.39338156 100.03913329 -51.02717775 111.49213429 -57.70654297 122.91967773 C-62.8770831 131.77244717 -68.00145894 140.6514712 -73.11523438 149.53710938 C-73.71013672 150.57029297 -74.30503906 151.60347656 -74.91796875 152.66796875 C-75.44156982 153.57828857 -75.9651709 154.4886084 -76.50463867 155.42651367 C-77.97991603 157.9654359 -79.48299726 160.48582646 -81 163 C-84.82097239 162.46930939 -87.06171403 161.50298434 -90 159 C-89.32986605 155.6085822 -88.02453945 152.9887225 -86.33203125 149.984375 C-85.4978064 148.49756226 -85.4978064 148.49756226 -84.64672852 146.98071289 C-84.04143311 145.91457764 -83.4361377 144.84844238 -82.8125 143.75 C-81.87071899 142.08022095 -81.87071899 142.08022095 -80.90991211 140.37670898 C-75.54697604 130.89739329 -70.0700557 121.48571542 -64.5625 112.08984375 C-60.8678669 105.78429581 -57.21147319 99.45705564 -53.5625 93.125 C-52.62869507 91.50476929 -52.62869507 91.50476929 -51.67602539 89.85180664 C-50.41423174 87.66203666 -49.15259466 85.47217645 -47.89111328 83.28222656 C-44.76319852 77.85340058 -41.63141552 72.42680719 -38.5 67 C-37.24998121 64.83334417 -35.99998122 62.6666775 -34.75 60.5 C-27.25 47.5 -27.25 47.5 -25.37158203 44.24414062 C-24.13289998 42.09704864 -22.8942921 39.94991386 -21.65576172 37.80273438 C-18.7146665 32.70411191 -15.77278587 27.60594704 -12.82830811 22.50927734 C-11.43041399 20.08952335 -10.03293911 17.66952737 -8.63549805 15.24951172 C-7.64347676 13.53198948 -6.65084571 11.81481948 -5.65820312 10.09765625 C-5.06201172 9.06511719 -4.46582031 8.03257812 -3.8515625 6.96875 C-3.32385254 6.05544922 -2.79614258 5.14214844 -2.25244141 4.20117188 C-1.46663489 2.82011309 -0.71060752 1.42121505 0 0 Z " fill="#23B6FD" transform="translate(470,185)"/>
<path d="M0 0 C3.0831351 1.19899698 6.06279492 2.47700477 9 4 C7.37160894 10.18166287 4.05752905 15.31090634 0.8125 20.75 C-0.46419778 22.91367549 -1.74021671 25.07775166 -3.015625 27.2421875 C-3.67498047 28.35819336 -4.33433594 29.47419922 -5.01367188 30.62402344 C-8.18925356 36.0212633 -11.3137656 41.44764 -14.4375 46.875 C-15.69658348 49.05991376 -16.95569823 51.24480949 -18.21484375 53.4296875 C-19.15239502 55.05729004 -19.15239502 55.05729004 -20.10888672 56.71777344 C-23.86028024 63.22871257 -27.61690994 69.73663194 -31.37255859 76.24511719 C-34.51182246 81.68585336 -37.64981497 87.12731477 -40.78515625 92.5703125 C-47.39208029 104.03687489 -54.01345567 115.49433934 -60.70654297 126.91088867 C-63.52309001 131.72205658 -66.31739243 136.54395281 -69.06051636 141.39730835 C-70.43211865 143.82402015 -71.80978471 146.24727033 -73.18725586 148.6706543 C-74.16982857 150.40628493 -75.14262645 152.14743763 -76.11523438 153.88867188 C-77.00758789 155.4577832 -77.00758789 155.4577832 -77.91796875 157.05859375 C-78.70337036 158.45549438 -78.70337036 158.45549438 -79.50463867 159.88061523 C-81 162 -81 162 -84 163 C-86.51698632 161.92745123 -88.66805545 160.45196548 -91 159 C-89.65544302 155.45565573 -88.08771656 152.19200807 -86.234375 148.88671875 C-85.68152832 147.89889404 -85.12868164 146.91106934 -84.55908203 145.89331055 C-83.66358643 144.30643433 -83.66358643 144.30643433 -82.75 142.6875 C-82.12593262 141.57737549 -81.50186523 140.46725098 -80.85888672 139.32348633 C-76.11630308 130.91412229 -71.27753894 122.56308564 -66.39355469 114.23510742 C-61.87329446 106.52145758 -57.42511343 98.76841166 -53 91 C-47.48768825 81.3250039 -41.91575176 71.68717423 -36.2890625 62.078125 C-31.80833521 54.4142566 -27.39527888 46.71301829 -23 39 C-17.72626598 29.74803445 -12.42192553 20.51516124 -7.0625 11.3125 C-6.46501953 10.28447266 -5.86753906 9.25644531 -5.25195312 8.19726562 C-4.70603516 7.26205078 -4.16011719 6.32683594 -3.59765625 5.36328125 C-3.11820557 4.54126221 -2.63875488 3.71924316 -2.14477539 2.87231445 C-1 1 -1 1 0 0 Z " fill="#32AFFD" transform="translate(448,172)"/>
<path d="M0 0 C4.72710848 2.54299979 7.47049957 5.9599472 10.17578125 10.46875 C11.56824875 16.16520796 10.79515028 21.48407402 8.11328125 26.65625 C3.42725478 32.12328088 -0.77743286 34.89575818 -7.94921875 35.71875 C-14.0591767 35.55704979 -18.38804013 32.07594648 -22.51171875 27.84375 C-25.80530787 22.65001331 -26.54390203 18.46321575 -25.67578125 12.45703125 C-24.30538723 6.92580323 -20.69090353 3.43414715 -16.13671875 0.28125 C-11.04065361 -1.41743838 -5.14382507 -1.73028119 0 0 Z M-9.13671875 15.28125 C-9.13671875 16.27125 -9.13671875 17.26125 -9.13671875 18.28125 C-8.14671875 18.28125 -7.15671875 18.28125 -6.13671875 18.28125 C-6.13671875 17.29125 -6.13671875 16.30125 -6.13671875 15.28125 C-7.12671875 15.28125 -8.11671875 15.28125 -9.13671875 15.28125 Z " fill="#5408A5" transform="translate(147.13671875,87.71875)"/>
<path d="M0 0 C5.04097983 3.60069988 8.42284454 7.74400715 9.625 13.875 C9.71239417 19.93797046 8.59663992 24.13109676 4.625 28.875 C0.85457375 32.35539346 -2.4435781 34.83073356 -7.703125 34.91015625 C-14.65706182 34.48334276 -18.765898 32.62905211 -23.625 27.5 C-27.07040111 22.33189833 -27.78872827 18.10224794 -26.9140625 12.05078125 C-25.54366848 6.51955323 -21.92918478 3.02789715 -17.375 -0.125 C-11.73816637 -2.00394454 -5.61662826 -1.87220942 0 0 Z M-10.375 14.875 C-10.375 15.865 -10.375 16.855 -10.375 17.875 C-9.385 17.875 -8.395 17.875 -7.375 17.875 C-7.375 16.885 -7.375 15.895 -7.375 14.875 C-8.365 14.875 -9.355 14.875 -10.375 14.875 Z " fill="#5407A5" transform="translate(108.375,88.125)"/>
<path d="M0 0 C5.04097983 3.60069988 8.42284454 7.74400715 9.625 13.875 C9.71239417 19.93797046 8.59663992 24.13109676 4.625 28.875 C0.85457375 32.35539346 -2.4435781 34.83073356 -7.703125 34.91015625 C-14.65706182 34.48334276 -18.765898 32.62905211 -23.625 27.5 C-26.98886807 22.45419789 -27.89622729 18.13019476 -27.04296875 12.1875 C-25.50316413 6.85671443 -22.06126777 3.12989694 -17.6875 -0.125 C-11.72894697 -1.92380846 -5.9131611 -1.9710537 0 0 Z M-10.375 14.875 C-10.375 15.865 -10.375 16.855 -10.375 17.875 C-9.385 17.875 -8.395 17.875 -7.375 17.875 C-7.375 16.885 -7.375 15.895 -7.375 14.875 C-8.365 14.875 -9.355 14.875 -10.375 14.875 Z " fill="#5407A5" transform="translate(68.375,88.125)"/>
</svg>
